<?xml version="1.0" encoding="utf-8"?>
<!-- Generator: Adobe Illustrator 21.0.0, SVG Export Plug-In . SVG Version: 6.00 Build 0)  -->
<svg version="1.1" id="Layer_1" xmlns="http://www.w3.org/2000/svg" xmlns:xlink="http://www.w3.org/1999/xlink" x="0px" y="0px"
	 viewBox="0 0 310 75" style="enable-background:new 0 0 310 75;" xml:space="preserve">
<style type="text/css">
	.st0{fill:#415666;}
	.st1{fill:#6B8FA5;}
</style>
<g>
	<path class="st0" d="M36.3,55.3c-0.3,5.6-1.8,10-4.5,13.2s-6.2,4.8-10.5,4.8c-6.1,0-11-3-14.8-9.1S1,49.3,1,37.7
		c0-11.5,1.8-20.4,5.4-26.6s8.2-9.4,13.9-9.4c2.3,0,4.9,0.7,7.8,2.2c0.4,0.2,0.7,0.3,0.9,0.3c0.2,0,0.6-0.2,1-0.5
		c0.2-0.3,0.5-0.5,0.8-0.5h2.8c0.6,0,0.9,0.4,0.9,1.3v14.7c0,0.8-0.3,1.3-0.9,1.3h-2.2c-0.7,0-1.2-0.2-1.4-0.5
		c-0.2-0.3-0.6-1.2-1-2.7c-2-6.9-4.7-10.4-8-10.4c-1.9,0-3.4,0.9-4.5,2.7s-1.9,5.2-2.4,10.2c-0.6,5-0.8,10-0.8,15.2
		c0,11.2,0.7,19.4,2.1,24.6s3.8,7.8,7.3,7.8c4.2,0,6.9-4.2,8.2-12.5L36.3,55.3z"/>
	<path class="st1" d="M52.9,65.5V21.3c0-1.3-0.4-2.2-1.3-2.9C51,18,38.7,17.5,38.7,16.9v-1.6c0-0.6,12.3-0.9,12.9-0.9h11.1
		c0.5,0,0.8,0.3,0.8,0.8v1.7c0,0.6-0.3,1.1-0.9,1.5c-0.9,0.7-1.3,1.6-1.3,2.9V68h3c1.8,0,3.2-0.6,4.1-1.7c1-1.2,1.7-3.1,2.2-5.9
		c0.2-1.1,0.3-1.7,0.4-1.8c0.1-0.2,0.3-0.2,0.6-0.2h1.7c0.6,0,1,0.3,1,0.8v13.4H51.7c-0.8,0-13.2-0.4-13.2-1.1v-1.4
		c0-0.6,0.3-1.1,1-1.5C40.4,67.8,52.9,66.8,52.9,65.5z"/>
	<path class="st1" d="M86.4,21.8l-0.3-2.5c-0.1-0.8-0.2-1.3-0.2-1.4c0-0.2,0.2-0.5,0.5-0.6l6-2.9c0.1,0,0.2-0.1,0.3-0.1
		c0.3,0,0.5,0.2,0.6,0.7l9.6,50.6c0.2,0.9,0.4,1.6,0.6,2c0.2,0.4,0.7,0.8,1.4,1.3c0.5,0.3,0.8,0.7,0.8,1.2v1.6
		c0,0.6-0.2,0.9-0.7,0.9H93.1c-0.6,0-1-0.3-1-0.9v-1.6c0-0.6,0.4-1.1,1.1-1.5c0.9-0.5,1.4-1.2,1.4-2.1c0-0.2,0-0.5-0.1-0.9L93,57.8
		h-9.3l-1.5,7.5c-0.1,0.3-0.1,0.6-0.1,0.7c0,0.7,0.5,1.6,1.6,2.5c0.7,0.6,1,1.1,1,1.6v1.6c0,0.6-0.3,0.9-1,0.9h-7.4
		c-0.8,0-1.2-0.3-1.2-0.9v-1.9c0-0.5,0.3-0.9,0.8-1.3c1-0.6,1.6-1.7,1.9-3.2L86.4,21.8z M88.9,33.7l-3.7,19.1h7.4L88.9,33.7z"/>
	<path class="st1" d="M112,72.4h-1.8c-0.6,0-0.9-0.3-0.9-1v-14c0-0.9,0.3-1.4,1-1.4h1.5c0.4,0,0.7,0.1,0.8,0.4
		c0.1,0.3,0.3,1.3,0.6,3c1,6.5,3.2,9.8,6.6,9.8c1.8,0,3.2-0.8,4.2-2.5c1-1.6,1.5-3.6,1.5-6s-0.6-4.7-1.7-6.7
		c-1.1-2.1-3.2-4.8-6.4-8.4c-2.4-2.7-4.2-4.8-5.2-6.2c-1-1.5-1.9-3.2-2.5-5c-0.6-1.9-0.9-3.9-0.9-6.2c0-4.1,1-7.5,3-10.2
		s4.4-4,7.2-4c1.3,0,2.7,0.4,4.2,1.2c0.7,0.4,1.1,0.5,1.3,0.5s0.5-0.1,0.8-0.3c0.3-0.2,0.6-0.3,1.1-0.3h1.3c0.7,0,1,0.3,1,1v12.3
		c0,0.6-0.3,0.9-0.8,0.9h-1.6c-0.4,0-0.7-0.1-0.8-0.4c-0.1-0.2-0.4-1.1-0.7-2.7c-1.1-5.4-2.9-8.1-5.4-8.1c-1.3,0-2.4,0.6-3.2,1.8
		c-0.8,1.2-1.2,2.6-1.2,4.1c0,1.8,0.5,3.7,1.4,5.6c1,1.9,2.9,4.4,5.7,7.5c3.7,4,6.2,7.4,7.6,10.4c1.4,3,2.1,6.2,2.1,9.8
		c0,4.7-1.2,8.6-3.5,11.5c-2.4,3-5.2,4.4-8.4,4.4c-1.4,0-3.1-0.4-5.1-1.2c-0.6-0.3-1.1-0.4-1.3-0.4s-0.5,0.1-0.9,0.4
		C112.4,72.3,112.2,72.4,112,72.4z"/>
	<path class="st1" d="M138,72.4h-1.8c-0.6,0-0.9-0.3-0.9-1v-14c0-0.9,0.3-1.4,1-1.4h1.5c0.4,0,0.7,0.1,0.8,0.4
		c0.1,0.3,0.3,1.3,0.5,3c1,6.5,3.2,9.8,6.6,9.8c1.8,0,3.2-0.8,4.2-2.5c1-1.6,1.5-3.6,1.5-6s-0.6-4.7-1.7-6.7
		c-1.1-2.1-3.2-4.8-6.4-8.4c-2.4-2.7-4.2-4.8-5.2-6.2c-1-1.5-1.9-3.2-2.5-5c-0.6-1.9-0.9-3.9-0.9-6.2c0-4.1,1-7.5,3-10.2
		s4.4-4,7.2-4c1.3,0,2.7,0.4,4.2,1.2c0.7,0.4,1.1,0.5,1.3,0.5s0.5-0.1,0.8-0.3c0.3-0.2,0.6-0.3,1.1-0.3h1.3c0.7,0,1,0.3,1,1v12.3
		c0,0.6-0.3,0.9-0.8,0.9h-1.6c-0.4,0-0.7-0.1-0.8-0.4c-0.1-0.2-0.4-1.1-0.7-2.7c-1.1-5.4-2.9-8.1-5.4-8.1c-1.3,0-2.4,0.6-3.2,1.8
		c-0.8,1.2-1.2,2.6-1.2,4.1c0,1.8,0.5,3.7,1.4,5.6c1,1.9,2.9,4.4,5.7,7.5c3.7,4,6.2,7.4,7.6,10.4s2.1,6.2,2.1,9.8
		c0,4.7-1.2,8.6-3.5,11.5c-2.4,3-5.2,4.4-8.4,4.4c-1.4,0-3.1-0.4-5.1-1.2c-0.6-0.3-1.1-0.4-1.3-0.4s-0.5,0.1-0.9,0.4
		C138.4,72.3,138.2,72.4,138,72.4z"/>
	<path class="st1" d="M176.8,42.8c7.2,2.4,10.8,7.2,10.8,14.3c0,3.1-0.7,5.9-2.1,8.3s-3.4,4.2-5.9,5.3c-2.6,1.1-5.1,1.7-7.7,1.7H161
		c-0.4,0-0.6-0.2-0.6-0.7v-1.8c0-0.5,0.3-1,0.9-1.5c0.9-0.7,1.4-1.6,1.4-2.9V21.3c0-1.3-0.5-2.3-1.4-2.9c-0.6-0.4-0.9-0.9-0.9-1.5
		v-1.7c0-0.5,0.3-0.8,0.9-0.8h11.3c4.2,0,7.6,1.3,10.2,3.9c2.6,2.6,3.8,6,3.8,10.2c0,2.9-0.7,5.7-2.2,8.3
		C182.9,39.4,180.4,41.4,176.8,42.8z M170.8,19v21.6c5,0,7.6-3.6,7.6-10.8c0-2.7-0.3-4.9-1-6.6s-1.5-2.9-2.5-3.4
		C173.9,19.3,172.5,19,170.8,19z M170.8,44.9V68c2-0.1,3.6-0.4,4.7-1.1c1.2-0.7,2.1-1.8,2.7-3.5c0.6-1.6,0.9-3.8,0.9-6.6
		c0-4-0.6-7-1.9-8.9C176,46,173.8,45,170.8,44.9z"/>
	<path class="st1" d="M206.1,73.2c-4.9,0-8.6-2.6-11.1-7.8c-2.4-5.2-3.6-12.4-3.6-21.7c0-9.2,1.2-16.5,3.7-21.9s6-8.1,10.7-8.1
		c4.4,0,7.9,2.5,10.4,7.5c2.6,5,3.9,12.4,3.9,22.1c0,10-1.3,17.4-3.8,22.4C213.6,70.7,210.3,73.2,206.1,73.2z M205.7,69.1
		c1.1,0,2-0.7,2.9-2.2s1.5-5.4,1.9-11.9s0.6-12.4,0.6-17.8c0-4.9-0.3-8.9-0.9-12s-1.2-5.2-1.8-6.1c-0.7-0.9-1.5-1.4-2.6-1.4
		c-0.9,0-1.7,0.3-2.4,1s-1.2,1.9-1.6,3.7c-0.4,1.8-0.7,5.3-1,10.6c-0.3,5.2-0.4,10.7-0.4,16.3c0,7,0.4,12.1,1.3,15.1
		S203.9,69.1,205.7,69.1z"/>
	<path class="st1" d="M239,73.2c-4.9,0-8.6-2.6-11.1-7.8c-2.4-5.2-3.6-12.4-3.6-21.7c0-9.2,1.2-16.5,3.7-21.9s6-8.1,10.7-8.1
		c4.4,0,7.9,2.5,10.4,7.5c2.6,5,3.9,12.4,3.9,22.1c0,10-1.3,17.4-3.8,22.4C246.5,70.7,243.2,73.2,239,73.2z M238.6,69.1
		c1.1,0,2-0.7,2.9-2.2s1.5-5.4,1.9-11.9s0.6-12.4,0.6-17.8c0-4.9-0.3-8.9-0.9-12s-1.2-5.2-1.8-6.1c-0.7-0.9-1.5-1.4-2.6-1.4
		c-0.9,0-1.7,0.3-2.4,1s-1.2,1.9-1.6,3.7c-0.4,1.8-0.7,5.3-1,10.6c-0.3,5.2-0.4,10.7-0.4,16.3c0,7,0.4,12.1,1.3,15.1
		S236.8,69.1,238.6,69.1z"/>
	<path class="st1" d="M272.8,18.7v46.7c0,1.3,0.4,2.3,1.3,2.9c0.6,0.4,0.9,0.9,0.9,1.5v1.7c0,0.6-0.3,0.9-0.9,0.9H263
		c-0.5,0-0.8-0.3-0.8-0.8v-1.8c0-0.5,0.3-1,0.9-1.5c0.9-0.7,1.3-1.6,1.3-2.9V18.7H263c-1.2,0-2,0.5-2.6,1.4s-1.1,2.9-1.5,6.1
		c0,0.4-0.3,0.6-0.7,0.6h-1.4c-0.8,0-1.2-0.4-1.2-1.1V14.9c0-0.8,0.4-1.3,1.1-1.3c0.5,0,1.3,0.1,2.5,0.3c1.9,0.3,3.4,0.5,4.4,0.5
		h12.6c0.6-0.1,1.4-0.2,2.3-0.4c1.4-0.2,2.2-0.3,2.3-0.3c0.6,0,1,0.3,1,0.9v11.2c0,0.7-0.3,1.1-0.9,1.1h-1.3c-0.5,0-0.9-0.2-1-0.5
		s-0.3-1.1-0.5-2.4c-0.4-2.1-0.9-3.5-1.3-4.2c-0.5-0.7-1.2-1-2.4-1L272.8,18.7L272.8,18.7z"/>
	<path class="st1" d="M288.3,72.4h-1.8c-0.6,0-0.9-0.3-0.9-1v-14c0-0.9,0.3-1.4,1-1.4h1.5c0.4,0,0.7,0.1,0.8,0.4
		c0.1,0.3,0.3,1.3,0.5,3c1,6.5,3.2,9.8,6.6,9.8c1.8,0,3.2-0.8,4.2-2.5c1-1.6,1.5-3.6,1.5-6S301.1,56,300,54
		c-1.1-2.1-3.2-4.8-6.4-8.4c-2.4-2.7-4.2-4.8-5.2-6.2c-1-1.5-1.9-3.2-2.5-5c-0.6-1.9-0.9-3.9-0.9-6.2c0-4.1,1-7.5,3-10.2
		s4.4-4,7.2-4c1.3,0,2.7,0.4,4.2,1.2c0.7,0.4,1.1,0.5,1.3,0.5s0.5-0.1,0.8-0.3c0.3-0.2,0.6-0.3,1.1-0.3h1.3c0.7,0,1,0.3,1,1v12.3
		c0,0.6-0.3,0.9-0.8,0.9h-1.6c-0.4,0-0.7-0.1-0.8-0.4c-0.1-0.2-0.4-1.1-0.7-2.7c-1.1-5.4-2.9-8.1-5.4-8.1c-1.3,0-2.4,0.6-3.2,1.8
		s-1.2,2.6-1.2,4.1c0,1.8,0.5,3.7,1.4,5.6c1,1.9,2.9,4.4,5.7,7.5c3.7,4,6.2,7.4,7.6,10.4s2.1,6.2,2.1,9.8c0,4.7-1.2,8.6-3.5,11.5
		c-2.4,3-5.2,4.4-8.4,4.4c-1.4,0-3.1-0.4-5.1-1.2c-0.6-0.3-1.1-0.4-1.3-0.4c-0.2,0-0.5,0.1-0.9,0.4
		C288.7,72.3,288.5,72.4,288.3,72.4z"/>
</g>
</svg>
