<svg xmlns="http://www.w3.org/2000/svg" xmlns:xlink="http://www.w3.org/1999/xlink" viewBox="0 0 597.92 498.22"><defs><style>.cls-1{isolation:isolate;}.cls-19,.cls-2,.cls-22{fill:#1d1d1b;}.cls-3{fill:url(#radial-gradient);}.cls-4{fill:url(#radial-gradient-2);}.cls-5{fill:#333;}.cls-6{fill:url(#radial-gradient-3);}.cls-23,.cls-24,.cls-7{fill:#fff;}.cls-8{fill:#c6c2a6;}.cls-9{fill:#1b1464;}.cls-10{fill:url(#radial-gradient-4);}.cls-11,.cls-12,.cls-16,.cls-25,.cls-26,.cls-30,.cls-33,.cls-39,.cls-41,.cls-49,.cls-50{fill:none;}.cls-11,.cls-12{stroke:#1b1464;}.cls-11,.cls-12,.cls-16,.cls-25,.cls-26,.cls-30,.cls-33,.cls-41{stroke-miterlimit:10;}.cls-11{stroke-width:1.89px;}.cls-12{stroke-width:1.28px;}.cls-13{fill:url(#radial-gradient-5);}.cls-14{fill:url(#radial-gradient-6);}.cls-15{fill:#29abe2;}.cls-16,.cls-25,.cls-33,.cls-41{stroke:#c3e1cc;}.cls-17{fill:#f28c00;}.cls-18{opacity:0.38;fill:url(#linear-gradient);}.cls-19{opacity:0.44;}.cls-20{fill:#de680e;}.cls-21{fill:#521c00;}.cls-22{opacity:0.27;}.cls-23{opacity:0.18;}.cls-24{opacity:0.48;}.cls-25{stroke-width:0.98px;}.cls-26{stroke:#009a9f;stroke-width:2.08px;}.cls-27{fill:#e4051f;}.cls-28{fill:#c88300;}.cls-29{fill:#9e5e0d;}.cls-30{stroke:#c88300;stroke-width:2.08px;}.cls-30,.cls-39,.cls-49,.cls-50{stroke-linecap:round;}.cls-31{fill:#75ccf4;}.cls-32{fill:#006f9e;opacity:0.63;}.cls-33{stroke-width:1.07px;}.cls-34{fill:#006da1;}.cls-35{fill:#c79f6e;}.cls-36{fill:#ecd6a7;}.cls-37{fill:#fffde8;}.cls-38{fill:#ede7bf;}.cls-39{stroke:#a45e00;stroke-width:1.16px;}.cls-39,.cls-49,.cls-50{stroke-linejoin:round;}.cls-40{fill:#e30613;}.cls-41{stroke-width:1.01px;}.cls-42{fill:#ffd600;}.cls-43{fill:#f7ab19;}.cls-44{fill:#c67f16;}.cls-45{fill:#ffebc5;}.cls-46{fill:#e4c399;}.cls-47{fill:#36311c;}.cls-48{fill:#bccf00;}.cls-49,.cls-50{stroke:#eee300;}.cls-49{stroke-width:1.03px;}.cls-50{stroke-width:2.05px;}.cls-51{fill:#40bbcf;opacity:0.45;mix-blend-mode:multiply;}</style><radialGradient id="radial-gradient" cx="188.28" cy="492.73" r="85.34" gradientUnits="userSpaceOnUse"><stop offset="0" stop-color="#fffdf0"/><stop offset="1" stop-color="#f3edc9"/></radialGradient><radialGradient id="radial-gradient-2" cx="412.9" cy="497.41" r="81.99" xlink:href="#radial-gradient"/><radialGradient id="radial-gradient-3" cx="169.57" cy="510.84" r="157.97" xlink:href="#radial-gradient"/><radialGradient id="radial-gradient-4" cx="805.76" cy="510.84" r="157.97" gradientTransform="matrix(-1, 0, 0, 1, 1240.89, 0)" xlink:href="#radial-gradient"/><radialGradient id="radial-gradient-5" cx="259.04" cy="443.65" r="65.95" xlink:href="#radial-gradient"/><radialGradient id="radial-gradient-6" cx="353.95" cy="454" r="62.63" xlink:href="#radial-gradient"/><linearGradient id="linear-gradient" x1="517.18" y1="161.07" x2="527.01" y2="147.67" gradientTransform="matrix(-0.71, -0.7, 0.7, -0.71, 600.21, 652.32)" gradientUnits="userSpaceOnUse"><stop offset="0" stop-color="#1d1d1b"/><stop offset="1" stop-color="#1d1d1b" stop-opacity="0"/></linearGradient></defs><title>index_logo</title><g class="cls-1"><g id="Layer_1" data-name="Layer 1"><path class="cls-2" d="M327.57,541.39c0,3.65-11.18,6.61-25,6.61s-25-3-25-6.61,12.53-8.09,26.32-8.09S327.57,537.75,327.57,541.39Z" transform="translate(-18.62 -50.03)"/><path class="cls-3" d="M301.19,526.47C292.31,473,261.7,464,232.92,462.3c-33.36-2-60.26,6.2-86.26,14.09-23.38,7.1-50.1,14.25-74.25,12.43l4.86-3.45c23.6,1.78,45.41-4.85,68.51-11.87,26.26-8,53.41-16.21,87.32-14.21C261.31,461,294.89,470,304.16,526Z" transform="translate(-18.62 -50.03)"/><path class="cls-4" d="M303.35,525.31l-3-.33c1.91-17.36,12.44-33.8,28.15-44,14.05-9.1,38.47-17.46,75.07-5.68,11.28,3.64,21.46,7,30.45,9.95,40,13.15,62,20.4,88.59,22.4l2.83,3.22c-27-2-52.16-9.52-92.36-22.75-9-3-19.17-6.31-30.43-9.94-35.47-11.43-59-3.41-72.51,5.34C315.18,493.22,305.17,508.84,303.35,525.31Z" transform="translate(-18.62 -50.03)"/><polygon class="cls-5" points="261.14 455.45 185.19 455.02 20.97 482.08 0.81 490.58 261.14 490.58 261.14 455.45"/><path class="cls-6" d="M301.85,522.2c-6.4-29.84-49.21-61-110.88-36S92.59,516.9,52.39,516.9C42.7,527.08,28.1,538.83,28.1,538.83s97.94,3.23,142.07-6.93c54.22-12.48,84.55-30.5,108.12,7.62,10.69-6.92,24.25-6.93,24.25-6.93A30.6,30.6,0,0,0,301.85,522.2Z" transform="translate(-18.62 -50.03)"/><path class="cls-7" d="M52.39,519.85c40.2,0,76.9-5.8,138.58-30.75s104.48,6.2,110.88,36a38.61,38.61,0,0,1,.82,6.12,34.84,34.84,0,0,0-.82-9.06c-6.4-29.84-49.21-61-110.88-36S92.59,516.9,52.39,516.9C42.7,527.08,28.1,538.83,28.1,538.83S45.62,527,52.39,519.85Z" transform="translate(-18.62 -50.03)"/><path class="cls-8" d="M57.24,524.66l2.38.66c.8.22,1.62.31,2.43.47,1.6.34,3.26.43,4.89.64s3.28.22,4.92.33l4.94.11c6.58.06,13.16-.28,19.71-.85s13.08-1.43,19.58-2.44l4.86-.86,2.42-.44,2.42-.51,4.82-1,4.79-1.18,2.4-.57,2.38-.64,4.75-1.3c3.14-1,6.27-1.94,9.41-3,6.27-2.09,12.57-4.09,18.92-5.89a303,303,0,0,1,38.63-8.75c-6.47,1.28-12.88,2.84-19.25,4.55s-12.71,3.5-19,5.46-12.58,3.94-18.8,6.11c-3.12,1.06-6.29,2.06-9.44,3.07L140.62,520l-2.4.67-2.41.58L131,522.39l-4.87,1-2.43.49-2.45.42-4.89.84c-6.55.94-13.12,1.82-19.73,2.21s-13.22.6-19.84.37l-5-.3c-1.65-.17-3.29-.3-4.93-.52A44.19,44.19,0,0,1,57.24,524.66Z" transform="translate(-18.62 -50.03)"/><path class="cls-8" d="M166.32,507.69c5.35-2,10.72-3.85,16.11-5.72s10.83-3.55,16.32-5.13a157.51,157.51,0,0,1,33.68-6.31,84,84,0,0,1,17.21.67,56,56,0,0,1,16.48,5.05A51.26,51.26,0,0,1,280,506.38a61.52,61.52,0,0,1,9.94,13.91c-5.86-9.73-14.1-18.16-24.38-22.85a57.55,57.55,0,0,0-16.16-4.63,83.4,83.4,0,0,0-16.87-.58c-11.29.66-22.44,3-33.44,5.87-5.5,1.42-11,3-16.41,4.66Z" transform="translate(-18.62 -50.03)"/><path class="cls-8" d="M93.12,536.78c8.06-.42,16.12-1,24.14-1.91s16-1.85,24-3.13,15.9-2.7,23.75-4.51a208.26,208.26,0,0,0,23.19-6.67q2.84-1,5.69-2t5.73-2c3.84-1.3,7.71-2.52,11.63-3.58a99.24,99.24,0,0,1,24.05-3.8,54.26,54.26,0,0,1,23.81,4.68A52.28,52.28,0,0,1,277.82,529a50.8,50.8,0,0,0-42.49-18.6,104.31,104.31,0,0,0-23.67,4c-3.87,1.07-7.7,2.3-11.51,3.62-1.9.66-3.79,1.35-5.68,2.05s-3.78,1.41-5.7,2.09c-15.36,5.32-31.3,8.58-47.31,10.86A371.1,371.1,0,0,1,93.12,536.78Z" transform="translate(-18.62 -50.03)"/><rect class="cls-9" x="0.81" y="490.57" width="260.33" height="4.36"/><path class="cls-8" d="M196,515.25a71.22,71.22,0,0,1,13.27-5.49,100.57,100.57,0,0,1,14-3.17,82.14,82.14,0,0,1,14.36-.87,39.89,39.89,0,0,1,14.05,2.77,35.5,35.5,0,0,0-7-1.61l-1.76-.24-1.78-.12-1.78-.12-1.79,0a89.21,89.21,0,0,0-14.22,1.05,111.06,111.06,0,0,0-14,3l-3.43,1-3.39,1.15-3.34,1.27Z" transform="translate(-18.62 -50.03)"/><polygon class="cls-5" points="306.32 455.45 382.27 455.02 546.49 482.08 566.65 490.58 306.32 490.58 306.32 455.45"/><path class="cls-10" d="M302.85,522.2c6.4-29.84,49.2-61,110.88-36S512.11,516.9,552.3,516.9c9.7,10.18,24.29,21.93,24.29,21.93s-97.93,3.23-142.07-6.93c-54.22-12.48-84.55-30.5-108.11,7.62-10.7-6.92-24.26-6.93-24.26-6.93A30.8,30.8,0,0,1,302.85,522.2Z" transform="translate(-18.62 -50.03)"/><path class="cls-7" d="M552.3,519.85c-40.19,0-76.89-5.8-138.57-30.75s-104.48,6.2-110.88,36a38.61,38.61,0,0,0-.82,6.12,34.84,34.84,0,0,1,.82-9.06c6.4-29.84,49.2-61,110.88-36S512.11,516.9,552.3,516.9c9.7,10.18,24.29,21.93,24.29,21.93S559.07,527,552.3,519.85Z" transform="translate(-18.62 -50.03)"/><path class="cls-8" d="M547.46,524.66a44.19,44.19,0,0,1-9.65,2.22c-1.64.22-3.29.35-4.93.52l-5,.3c-6.61.23-13.23,0-19.84-.37s-13.17-1.27-19.72-2.21l-4.89-.84-2.45-.42-2.43-.49-4.87-1-4.83-1.15-2.42-.58-2.39-.67-4.78-1.35c-3.15-1-6.33-2-9.44-3.07-6.23-2.17-12.52-4.12-18.8-6.11s-12.63-3.79-19-5.46-12.78-3.27-19.25-4.55a302.46,302.46,0,0,1,38.62,8.75c6.36,1.8,12.66,3.8,18.93,5.89,3.14,1,6.26,2,9.4,3l4.76,1.3,2.38.64,2.39.57,4.79,1.18,4.83,1,2.41.51,2.43.44,4.86.86c6.49,1,13,1.85,19.58,2.44s13.13.91,19.71.85l4.94-.11c1.64-.11,3.28-.17,4.92-.33s3.28-.3,4.89-.64c.81-.16,1.63-.25,2.43-.47Z" transform="translate(-18.62 -50.03)"/><path class="cls-8" d="M438.38,507.69,422,502.76c-5.45-1.64-10.91-3.24-16.42-4.66-11-2.83-22.14-5.21-33.43-5.87a83.53,83.53,0,0,0-16.88.58,57.48,57.48,0,0,0-16.15,4.63c-10.28,4.69-18.52,13.12-24.38,22.85a61.17,61.17,0,0,1,9.93-13.91,51.42,51.42,0,0,1,13.88-10.13,56.1,56.1,0,0,1,16.49-5.05,84,84,0,0,1,17.21-.67A157.63,157.63,0,0,1,406,496.84c5.48,1.58,10.92,3.31,16.32,5.13S433,505.72,438.38,507.69Z" transform="translate(-18.62 -50.03)"/><path class="cls-8" d="M511.58,536.78A371.1,371.1,0,0,1,463.24,533c-16-2.28-32-5.54-47.32-10.86-1.92-.68-3.82-1.37-5.69-2.09s-3.79-1.39-5.69-2.05c-3.8-1.32-7.63-2.55-11.5-3.62a104.3,104.3,0,0,0-23.68-4A50.76,50.76,0,0,0,326.88,529a52.28,52.28,0,0,1,18.71-15.23,54.26,54.26,0,0,1,23.81-4.68,99.24,99.24,0,0,1,24.05,3.8c3.92,1.06,7.79,2.28,11.63,3.58q2.87,1,5.73,2c1.9.71,3.79,1.39,5.69,2a208.1,208.1,0,0,0,23.18,6.67c7.85,1.81,15.8,3.21,23.76,4.51s16,2.31,24,3.13S503.51,536.36,511.58,536.78Z" transform="translate(-18.62 -50.03)"/><rect class="cls-9" x="324.94" y="540.59" width="260.33" height="4.36" transform="translate(891.59 1035.53) rotate(180)"/><path class="cls-8" d="M408.65,515.25l-3.29-1.42L402,512.56l-3.38-1.15-3.43-1a110.84,110.84,0,0,0-14-3A89,89,0,0,0,367,506.38l-1.78,0-1.78.12-1.78.12-1.77.24a35.57,35.57,0,0,0-6.95,1.61A39.8,39.8,0,0,1,367,505.72a82.14,82.14,0,0,1,14.36.87,100.57,100.57,0,0,1,14,3.17A71.13,71.13,0,0,1,408.65,515.25Z" transform="translate(-18.62 -50.03)"/><path class="cls-11" d="M276.74,541.74c3.08-3.79,31.46-16.93,52.33,0" transform="translate(-18.62 -50.03)"/><path class="cls-12" d="M276.74,543.74c3.08,1.74,31.46,7.75,52.33,0" transform="translate(-18.62 -50.03)"/><path class="cls-13" d="M304.36,525.16l-3,0c.34-27.67-8.45-61.95-23.52-91.69-16.83-33.2-39.6-57.54-64.11-68.54l1.23-2.75c25.15,11.27,48.43,36.11,65.57,69.93C295.79,462.22,304.71,497,304.36,525.16Z" transform="translate(-18.62 -50.03)"/><path class="cls-14" d="M301.34,525.2C299.87,487.37,329,406.77,405.72,382.79l.9,2.88c-75.18,23.49-103.7,102.39-102.26,139.41Z" transform="translate(-18.62 -50.03)"/><path class="cls-15" d="M302.2,283.36a6.22,6.22,0,1,1-6.22-6.22A6.21,6.21,0,0,1,302.2,283.36Z" transform="translate(-18.62 -50.03)"/><path class="cls-15" d="M447.64,196.25a5.45,5.45,0,1,1-5.45-5.44A5.45,5.45,0,0,1,447.64,196.25Z" transform="translate(-18.62 -50.03)"/><circle class="cls-15" cx="514.57" cy="235.33" r="5.44"/><path class="cls-15" d="M477.19,452.9a3.11,3.11,0,1,1-3.11-3.11A3.11,3.11,0,0,1,477.19,452.9Z" transform="translate(-18.62 -50.03)"/><path class="cls-15" d="M104.32,197.59A9.33,9.33,0,1,1,95,188.25,9.33,9.33,0,0,1,104.32,197.59Z" transform="translate(-18.62 -50.03)"/><path class="cls-15" d="M75.88,335.47a3.11,3.11,0,1,1-3.11-3.11A3.11,3.11,0,0,1,75.88,335.47Z" transform="translate(-18.62 -50.03)"/><path class="cls-15" d="M42.44,466.9a3.11,3.11,0,1,1-3.11-3.11A3.11,3.11,0,0,1,42.44,466.9Z" transform="translate(-18.62 -50.03)"/><circle class="cls-15" cx="351.41" cy="95.37" r="52.04"/><circle class="cls-16" cx="370.03" cy="145.4" r="56.68" transform="translate(126.11 422.94) rotate(-76.93)"/><path class="cls-17" d="M352.67,184.54,329.72,190a1.94,1.94,0,0,1-2.4-2.35l5.05-23Z" transform="translate(-18.62 -50.03)"/><path class="cls-18" d="M333,189.23l19.67-4.69-20.3-19.93-1.66,7.54C337.53,175.45,338.25,183.74,333,189.23Z" transform="translate(-18.62 -50.03)"/><path class="cls-17" d="M393.73,98.33a4.13,4.13,0,0,1,4.17-1,31.48,31.48,0,0,1,12.43,7.87,30.76,30.76,0,0,1,8,12.16,4.13,4.13,0,0,1-1,4.15L355.26,184.7a2.68,2.68,0,0,1-2.74.66,34,34,0,0,1-12.79-8,37.52,37.52,0,0,1-8.61-13,2.67,2.67,0,0,1,.59-2.82Z" transform="translate(-18.62 -50.03)"/><path class="cls-19" d="M399.63,116.06c6.69,6.57,9.06,11.8,9.72,13.54l4.6-4.69c-.65-1.74-3-7-9.72-13.54s-12.1-9-13.87-9.61l-4.6,4.69C387.52,107.1,392.91,109.47,399.63,116.06Z" transform="translate(-18.62 -50.03)"/><path class="cls-20" d="M389.24,102.07s6.25,1.73,14.49,9.82S413.66,126,413.66,126l-53,53.94s-6.49-2.68-13.83-9.89A55.22,55.22,0,0,1,336.29,156Z" transform="translate(-18.62 -50.03)"/><path class="cls-21" d="M362.77,177.88s-6.5-2.67-13.84-9.88a55.22,55.22,0,0,1-10.59-14.09l1.58-1.61a55,55,0,0,0,10.59,14.09c7.34,7.21,13.83,9.89,13.83,9.89Z" transform="translate(-18.62 -50.03)"/><path class="cls-21" d="M365.54,175.06s-6.49-2.68-13.84-9.88a55,55,0,0,1-10.58-14.09l2.15-2.19A55,55,0,0,0,353.85,163c7.34,7.2,13.84,9.88,13.84,9.88Z" transform="translate(-18.62 -50.03)"/><path class="cls-21" d="M410.76,129s-2.79-6.45-10.13-13.65A55.2,55.2,0,0,0,386.34,105c-.12-.13-1.57,1.6-1.57,1.6A55.07,55.07,0,0,1,399.05,117c7.34,7.21,10.14,13.65,10.14,13.65Z" transform="translate(-18.62 -50.03)"/><path class="cls-21" d="M408,131.82s-2.79-6.44-10.14-13.65a55.07,55.07,0,0,0-14.28-10.33L381.42,110a55.2,55.2,0,0,1,14.29,10.33c7.34,7.21,10.13,13.65,10.13,13.65Z" transform="translate(-18.62 -50.03)"/><path class="cls-22" d="M352.52,185.36a2.68,2.68,0,0,0,2.74-.66l4.89-5,.56.26,53-53.94s-.06-.21-.21-.62l3.89-4a4.13,4.13,0,0,0,1-4.15,25.42,25.42,0,0,0-2.64-5.54l-69.4,70.68A31.54,31.54,0,0,0,352.52,185.36Z" transform="translate(-18.62 -50.03)"/><path class="cls-23" d="M336.57,156.55l-4.86,4.95a2.67,2.67,0,0,0-.59,2.82,35.5,35.5,0,0,0,1.58,3.51l68.14-69.4a24.83,24.83,0,0,0-2.94-1.15,4.13,4.13,0,0,0-4.17,1l-3.87,3.94c-.4-.14-.62-.2-.62-.2L336.29,156S336.38,156.2,336.57,156.55Z" transform="translate(-18.62 -50.03)"/><path class="cls-24" d="M327.59,187.81l3.2-14.13S331.06,183.84,327.59,187.81Z" transform="translate(-18.62 -50.03)"/><circle class="cls-15" cx="115.08" cy="57.37" r="52.04"/><circle class="cls-25" cx="115.08" cy="57.37" r="56.88"/><ellipse class="cls-26" cx="134.49" cy="106.75" rx="28.98" ry="16.59" transform="matrix(0.04, -1, 1, 0.04, 4.09, 187.07)"/><ellipse class="cls-26" cx="134.49" cy="106.75" rx="32.92" ry="14.61" transform="matrix(0.83, -0.55, 0.55, 0.83, -55.19, 41.79)"/><path class="cls-26" d="M146.57,97.78c13.65,11.84,19.3,25.46,12.63,30.42s-23.14-.63-36.79-12.47-19.3-25.46-12.63-30.42S132.93,85.94,146.57,97.78Z" transform="translate(-18.62 -50.03)"/><path class="cls-27" d="M140.51,107a6,6,0,1,1-5.8-6A5.9,5.9,0,0,1,140.51,107Z" transform="translate(-18.62 -50.03)"/><circle class="cls-15" cx="420.25" cy="299.57" r="52.04" transform="translate(-103.16 142.14) rotate(-23.47)"/><circle class="cls-16" cx="420.25" cy="299.57" r="57.84" transform="translate(-100.14 128.83) rotate(-21.96)"/><path class="cls-28" d="M397,338l30.78,6.82a17.7,17.7,0,0,0-13.59-13.57C404.71,329,397,338,397,338Z" transform="translate(-18.62 -50.03)"/><path class="cls-29" d="M414.22,331.26a13.25,13.25,0,0,0-2.45-.31c7.64,3.68,7.3,8.46,5.32,11.5l10.72,2.38A17.7,17.7,0,0,0,414.22,331.26Z" transform="translate(-18.62 -50.03)"/><path class="cls-30" d="M389.91,316.3a37.79,37.79,0,1,0,34.34-60.06" transform="translate(-18.62 -50.03)"/><path class="cls-31" d="M448.54,284A30.37,30.37,0,1,1,410,265,30.38,30.38,0,0,1,448.54,284Z" transform="translate(-18.62 -50.03)"/><path class="cls-32" d="M439.47,303.33c.3-.55.58-1.09.83-1.6a48.46,48.46,0,0,0,4.16-12.59l5.63,3.24a31.2,31.2,0,0,0-.5-4.17L445,285.55a37.6,37.6,0,0,0-.1-8.83,29.9,29.9,0,0,0-5-5.72,27.31,27.31,0,0,1,1.93,12.71l-10.15-5.84,5.18-9.21a29.52,29.52,0,0,0-2.89-1.74l-5.21,9.27-11.83-6.81A33.09,33.09,0,0,1,432.05,266a30.83,30.83,0,0,0-8.78-2.4,35,35,0,0,0-9.75,3.84l-4-2.28a30.47,30.47,0,0,0-3.82,1.68l4.62,2.67a36.3,36.3,0,0,0-9.89,11.24l-6.15-3.55a32.39,32.39,0,0,0-1.69,2.91l6.28,3.63a42.86,42.86,0,0,0-3.85,14.64l-5.62-3.24a30,30,0,0,0,.5,4.18l5,2.86a38.91,38.91,0,0,0,1.72,11.21,30.1,30.1,0,0,0,6.13,5.48,31.59,31.59,0,0,1-4.44-14.73l11.09,6.38-5.21,9.28a31.45,31.45,0,0,0,3,1.56l5.14-9.15,9.28,5.33a38.76,38.76,0,0,1-12.26,4.72,30.32,30.32,0,0,0,6.75,1.6,42,42,0,0,0,8.82-4.41l5,2.89a31.31,31.31,0,0,0,3.83-1.69l-5.86-3.37a44.9,44.9,0,0,0,9.85-11.05l7.32,4.23a30.19,30.19,0,0,0,1.71-2.9Zm-25.92-32,13.51,7.78L419.84,292l-16.46-9.52A33.48,33.48,0,0,1,413.55,271.35Zm-2.49,36.25-12.76-7.35a39.68,39.68,0,0,1,3.54-14.8l16.35,9.46Zm13.68,7.87L414,309.28l7.12-12.68,13.74,7.95A41.54,41.54,0,0,1,424.74,315.47Zm12.54-15.23c-.22.45-.47.92-.73,1.4l-13.79-8L430,280.81l11.39,6.55A45.28,45.28,0,0,1,437.28,300.24Z" transform="translate(-18.62 -50.03)"/><path class="cls-32" d="M448.54,284a30.63,30.63,0,0,0-2.38-5.23,30.34,30.34,0,0,1-56.26,20.21,30.72,30.72,0,0,0,1.14,4.61A30.37,30.37,0,1,0,448.54,284Z" transform="translate(-18.62 -50.03)"/><circle class="cls-15" cx="560.48" cy="369.14" r="52.04" transform="translate(55.41 781.46) rotate(-76.91)"/><circle class="cls-33" cx="560.48" cy="369.14" r="55.52" transform="translate(55.51 781.57) rotate(-76.93)"/><polygon class="cls-34" points="577.91 362.27 534.15 343.37 549.21 295.73 596.01 305.01 577.91 362.27"/><polygon class="cls-34" points="486.8 333.7 534.13 343.37 549.19 295.72 504.9 276.44 486.8 333.7"/><polyline class="cls-35" points="510.6 281.26 506.37 279.35 490.07 332.05 494.34 332.81"/><polygon class="cls-36" points="498.35 334.07 494.07 333.31 510.37 280.6 514.6 282.51 498.35 334.07"/><polyline class="cls-35" points="588.85 306.11 593.42 306.95 576.8 359.55 572.85 357.74"/><polygon class="cls-36" points="568.84 356.49 572.79 358.3 589.41 305.7 584.85 304.86 568.84 356.49"/><polygon class="cls-37" points="568.73 357.03 534.76 341.44 548.59 297.67 585.35 304.42 568.73 357.03"/><path class="cls-38" d="M572.52,348.67l-5.31-1-13.83,43.77,34,15.59,1.95-6.17C564.39,399.17,561.51,375.64,572.52,348.67Z" transform="translate(-18.62 -50.03)"/><line class="cls-39" x1="555.26" y1="306.51" x2="574.32" y2="310.18"/><line class="cls-39" x1="553.24" y1="312.92" x2="572.02" y2="317.45"/><line class="cls-39" x1="551.21" y1="319.33" x2="569.73" y2="324.71"/><line class="cls-39" x1="549.19" y1="325.74" x2="567.75" y2="330.98"/><line class="cls-39" x1="547.16" y1="332.16" x2="565.5" y2="338.11"/><line class="cls-39" x1="545.14" y1="338.57" x2="563.11" y2="345.66"/><polygon class="cls-37" points="497.99 334.68 534.75 341.43 548.58 297.66 514.62 282.07 497.99 334.68"/><line class="cls-39" x1="538.04" y1="301.07" x2="520.33" y2="293.12"/><line class="cls-39" x1="536.01" y1="307.48" x2="518.04" y2="300.39"/><line class="cls-39" x1="533.98" y1="313.89" x2="515.74" y2="307.65"/><line class="cls-39" x1="531.96" y1="320.3" x2="513.76" y2="313.92"/><line class="cls-39" x1="529.93" y1="326.71" x2="511.51" y2="321.05"/><line class="cls-39" x1="527.91" y1="333.12" x2="509.12" y2="328.6"/><path class="cls-38" d="M553.36,391.46l13.84-43.77-5-2.29c-2.67,23.19-17.81,53.07-42.12,28.32l-3.47,11Z" transform="translate(-18.62 -50.03)"/><path class="cls-35" d="M567.2,347.69c-.46,1.86-1,3.7-1.46,5.55l-1.58,5.52c-1,3.68-2.19,7.34-3.33,11s-2.33,7.28-3.58,10.9l-1.89,5.42c-.66,1.8-1.29,3.6-2,5.39.46-1.87,1-3.71,1.46-5.56l1.58-5.52c1.05-3.68,2.19-7.33,3.33-11s2.33-7.29,3.59-10.9l1.88-5.43C565.87,351.28,566.5,349.47,567.2,347.69Z" transform="translate(-18.62 -50.03)"/><polygon class="cls-40" points="543.26 295.23 540.69 303.68 542.69 302.46 543.97 304.5 546.23 296.53 543.26 295.23"/><circle class="cls-15" cx="190.47" cy="254.57" r="52.04" transform="translate(-72.73 1.41) rotate(-13.48)"/><circle class="cls-41" cx="190.47" cy="254.57" r="56.25" transform="translate(-72.79 1.48) rotate(-13.5)"/><polygon class="cls-42" points="188.78 236.68 129.22 169.98 133.57 162.6 139.81 157.03 146.7 154.37 206.27 221.07 188.78 236.68"/><path class="cls-43" d="M157.84,207.58l-5.65,5L147.84,220l59.56,66.7,8.18-7.31C189.3,262.18,161.46,228.07,157.84,207.58Z" transform="translate(-18.62 -50.03)"/><polygon class="cls-44" points="201.69 225.15 140.59 156.73 139.81 157.03 139.16 157.61 200.46 226.26 201.69 225.15"/><polygon class="cls-44" points="133.57 162.6 133.02 163.54 194.09 231.94 195.33 230.83 134.03 162.19 133.57 162.6"/><path class="cls-45" d="M207.4,286.71l22.37,8.91a1,1,0,0,0,1.35-1.2l-6.23-23.32-6.39,3L212,280Z" transform="translate(-18.62 -50.03)"/><path class="cls-46" d="M231,294a52.24,52.24,0,0,1-17.24-15.64L212,280l-4.56,6.74,22.37,8.91a1,1,0,0,0,1.35-1.2Z" transform="translate(-18.62 -50.03)"/><path class="cls-47" d="M231.12,294.42,229,286.35c-2.9.32-5.63,2.42-7.53,5.95l8.34,3.32A1,1,0,0,0,231.12,294.42Z" transform="translate(-18.62 -50.03)"/><circle class="cls-15" cx="76.25" cy="403.14" r="52.04" transform="translate(-81.23 -32.96) rotate(-9.07)"/><circle class="cls-16" cx="57.63" cy="353.11" r="57.13"/><path class="cls-31" d="M82,389l-4.92-23.1-13.69,2.92,4.92,23.09-7.16,49.63a4.68,4.68,0,0,0,5.61,5.25l39-8.32a4.68,4.68,0,0,0,3-7.08Z" transform="translate(-18.62 -50.03)"/><rect class="cls-31" x="58.13" y="359.39" width="22.53" height="8.07" rx="1.89" ry="1.89" transform="translate(-92.83 -27.59) rotate(-12.03)"/><path class="cls-48" d="M82.53,395l-12.25,2.61-5.68,44a1.8,1.8,0,0,0,2.16,2l37.72-8a1.8,1.8,0,0,0,1.16-2.7Z" transform="translate(-18.62 -50.03)"/><path class="cls-49" d="M79.85,415.15a1.7,1.7,0,1,1-2-1.31A1.7,1.7,0,0,1,79.85,415.15Z" transform="translate(-18.62 -50.03)"/><path class="cls-50" d="M81.45,426.73a3,3,0,1,1-3.6-2.34A3,3,0,0,1,81.45,426.73Z" transform="translate(-18.62 -50.03)"/><path class="cls-49" d="M89.8,419.86a2.07,2.07,0,1,1-2.45-1.59A2.06,2.06,0,0,1,89.8,419.86Z" transform="translate(-18.62 -50.03)"/><path class="cls-51" d="M72.49,399.84c.73-5,1-7.67.34-11s-3.39-18.58-3.39-18.58l8.21-1.74-.57-2.65-13.69,2.92,4.92,23.09-7.16,49.63a4.68,4.68,0,0,0,5.61,5.25l19.92-4.24C62.58,443.48,69.93,417.49,72.49,399.84Z" transform="translate(-18.62 -50.03)"/><path class="cls-7" d="M86.35,401.29s9.6,18.3,18.14,29.07C102,424.84,89.27,405.5,86.35,401.29Z" transform="translate(-18.62 -50.03)"/></g></g></svg>