<svg xmlns="http://www.w3.org/2000/svg" viewBox="0 0 49.59 54.17"><defs><style>.cls-1{isolation:isolate;}.cls-2{fill:#c6c6c5;opacity:0.3;}.cls-2,.cls-9{mix-blend-mode:multiply;}.cls-3{fill:#0aada2;}.cls-4{fill:#47b5ab;}.cls-5{fill:#7bc3bb;}.cls-6{fill:#97cec7;}.cls-7{fill:#5cbab1;}.cls-8{fill:#81c6be;}.cls-9{fill:#9c9b9b;}.cls-10{fill:#231f20;}</style></defs><title>logo</title><g class="cls-1"><g id="Layer_1" data-name="Layer 1"><path class="cls-2" d="M14.67,45.36s-1.91.34-1.09,1.32,3.88.83,4.13,1.49S15.52,49.62,16,50.7s7.19,2.63,15.05.73,13.75-4.64,10.11-7.09-10.34-1.59-15.8-1A83.6,83.6,0,0,0,14.67,45.36Z" transform="translate(-4.5 -5.47)"/><polygon class="cls-3" points="26.98 39.2 27.55 39.56 28.03 39.07 28.25 39.01 28.71 39.24 29.11 38.59 29.86 38.9 30.06 38.39 26.98 39.2"/><path class="cls-3" d="M26.35,46.6a.19.19,0,0,0-.1,0A.19.19,0,0,1,26.35,46.6Z" transform="translate(-4.5 -5.47)"/><path class="cls-3" d="M19.56,47.18l-.33-.06.33.06a.13.13,0,0,1,.11.06l.15.19-.15-.19A.13.13,0,0,0,19.56,47.18Z" transform="translate(-4.5 -5.47)"/><path class="cls-3" d="M24.16,47.26l.06-.14v0Z" transform="translate(-4.5 -5.47)"/><path class="cls-4" d="M37.9,21.72s.28-.75-3.2-.64a34.59,34.59,0,0,0-4.67.54c-1.54.29-6,1.05-6.18,1.5s.16,1.15.37,3.43,1.57,8.56-1.4,11.39c-2.05,2-6.47,1.87-8.15,2.58-.79.33-.83,1.46-.83,1.46s.78,3.05,8.67,2.83c2.35-.07,5.29-1.47,8.21-2.57a48.23,48.23,0,0,0,5.15-2,2.23,2.23,0,0,0,.07-.69s-.45-4.23.34-6.51S37.9,21.72,37.9,21.72Z" transform="translate(-4.5 -5.47)"/><path class="cls-3" d="M26.35,46.6s0,0,0,0l.05,0-.05,0S26.36,46.61,26.35,46.6Z" transform="translate(-4.5 -5.47)"/><path class="cls-3" d="M27.3,46.42l-.07,0Z" transform="translate(-4.5 -5.47)"/><path class="cls-3" d="M26.48,46.73a5.93,5.93,0,0,0,.6-.22,5.93,5.93,0,0,1-.6.22Z" transform="translate(-4.5 -5.47)"/><path class="cls-5" d="M28.46,44.41c-5.45,2.32-11.93,2.16-14.88-.87a5.37,5.37,0,0,0,.21,1.71c.31.42,1.66,1.72,5.23,2.11l.08-.16a.16.16,0,0,1,.13-.08l.33.06a.13.13,0,0,1,.11.06l.15.19.51,0c.15,0,.43,0,.58,0l.06-.13a.13.13,0,0,1,.12-.08h.39a.15.15,0,0,1,.13.07l.07.12.82,0,0-.15a.13.13,0,0,1,.12-.08l.38,0a.16.16,0,0,1,.11,0l.12.16c.31,0,.61-.07.89-.12l.06-.14v0a.12.12,0,0,1,.05-.05h0l.46-.08a.15.15,0,0,1,.15,0l.09.11.78-.18v-.16a.13.13,0,0,1,.1-.1l.3-.1h.06a.19.19,0,0,1,.1,0s0,0,0,0l.05,0,.05,0a5.93,5.93,0,0,0,.6-.22l.15-.06.07,0,.05,0a4.22,4.22,0,0,1,.06-.54c0-.06,2.22-.9,2.36-1s.85.47,1,.46.4-.09.86-.22v0l0-.27a.13.13,0,0,1,.1-.1h0a.12.12,0,0,1,.15.08l.1.22h0l.74-.21v0l.05-.26a.12.12,0,0,1,.09-.11h0a.15.15,0,0,1,.16.08l.08.2.76-.22,0-.25a.14.14,0,0,1,.09-.11h0a.15.15,0,0,1,.16.08l.07.17c1.12-.35,1.45-.91,1.48-1.46s0-1.4,0-1.54C34.81,41.81,30.8,43.41,28.46,44.41Z" transform="translate(-4.5 -5.47)"/><path class="cls-6" d="M28.46,44.41c2.34-1,6.35-2.6,7.38-3,0,0,.57-.32.56-.78,0-.62,0-.66-.12-.82a1.18,1.18,0,0,0-.34-.17,2.23,2.23,0,0,1-.07.69,48.23,48.23,0,0,1-5.15,2c-2.92,1.1-5.86,2.5-8.21,2.57C14.62,45,13.84,42,13.84,42s-.45.1-.45.32a2.72,2.72,0,0,0-.05.68,1,1,0,0,0,.24.56C16.53,46.57,23,46.73,28.46,44.41Z" transform="translate(-4.5 -5.47)"/><path class="cls-3" d="M30.39,44.88c-.09-.13-.33-.11-.62,0,.13,0,.85.47,1,.46C30.79,45.36,30.72,45.36,30.39,44.88Z" transform="translate(-4.5 -5.47)"/><path class="cls-6" d="M28.46,44.41c2.34-1,6.35-2.6,7.38-3,0,0,.57-.32.56-.78,0-.62,0-.66-.12-.82a1.18,1.18,0,0,0-.34-.17,2.23,2.23,0,0,1-.07.69,48.23,48.23,0,0,1-5.15,2c-2.92,1.1-5.86,2.5-8.21,2.57C14.62,45,13.84,42,13.84,42s-.45.1-.45.32a2.72,2.72,0,0,0-.05.68,1,1,0,0,0,.24.56C16.53,46.57,23,46.73,28.46,44.41Z" transform="translate(-4.5 -5.47)"/><path class="cls-7" d="M22.43,45.26c2.78-.16,5.71-1.59,8.89-2.86,2.45-1,4.72-1.64,4.89-2s.15-.55.07-.62a1.18,1.18,0,0,0-.34-.17,2.23,2.23,0,0,1-.07.69,48.23,48.23,0,0,1-5.15,2c-2.92,1.1-5.86,2.5-8.21,2.57C14.62,45,13.84,42,13.84,42a1,1,0,0,0-.38.18S14.68,45.7,22.43,45.26Z" transform="translate(-4.5 -5.47)"/><path class="cls-7" d="M25.1,33.05c.14,1.4.09,4.71-1.58,5.49-1.34.62-.55-.48-.39-.66a5.44,5.44,0,0,0,1.58-3.62C24.85,33.09,25,32.68,25.1,33.05Z" transform="translate(-4.5 -5.47)"/><path class="cls-3" d="M37.46,21.3l-.08.09c.25.1.27.2.24.23A2.06,2.06,0,0,1,36,22.1a27.46,27.46,0,0,0-4.71.6,36,36,0,0,1-5,.85c.17.09-.62.15-.72.25-.64.58,2.55,6.8,2.82,8,1,4.52-1.13,8.26-3.06,9.28s-7,1.14-8.66.84c-.87-.16-2.59-.49-2.29-1.28A2,2,0,0,0,13.84,42s.78,3.05,8.67,2.83c2.35-.07,5.29-1.47,8.21-2.57a48.23,48.23,0,0,0,5.15-2,2.23,2.23,0,0,0,.07-.69s-.45-4.23.34-6.51S37.9,21.72,37.9,21.72,38,21.48,37.46,21.3Z" transform="translate(-4.5 -5.47)"/><path class="cls-8" d="M24.65,23.69c1.53.4,5.45-.44,6.83-.77a26.76,26.76,0,0,1,4.68-.6c1.45,0,1.74-.6,1.74-.6s.28-.75-3.2-.64a34.59,34.59,0,0,0-4.67.54c-1.54.29-6,1.05-6.18,1.5C23.8,23.29,24,23.54,24.65,23.69Z" transform="translate(-4.5 -5.47)"/><path class="cls-9" d="M25.57,23.58a4.6,4.6,0,0,1-1-.1c-.35-.09-.47-.14-.53-.22s0-.18.15-.23a40.09,40.09,0,0,1,5.24-1.21l.64-.12a36.56,36.56,0,0,1,4.66-.5h.64c2.2,0,2.32.38,2.27.43A2.06,2.06,0,0,1,36,22.1a27.46,27.46,0,0,0-4.71.6,31.58,31.58,0,0,1-5.76.88Z" transform="translate(-4.5 -5.47)"/><polygon class="cls-3" points="32.29 43.22 32.92 43.61 33.45 43.08 33.69 43 34.19 43.25 34.63 42.55 35.45 42.88 35.67 42.33 32.29 43.22"/><path class="cls-3" d="M31.17,50.8a.15.15,0,0,0-.11,0A.15.15,0,0,1,31.17,50.8Z" transform="translate(-4.5 -5.47)"/><path class="cls-3" d="M23.74,51.43l-.36-.06.36.06a.15.15,0,0,1,.12.07l.16.21-.16-.21A.15.15,0,0,0,23.74,51.43Z" transform="translate(-4.5 -5.47)"/><path class="cls-3" d="M28.78,51.52l.06-.15,0,0,0,0Z" transform="translate(-4.5 -5.47)"/><path class="cls-4" d="M43.82,23.54s.32-.81-3.5-.69a36,36,0,0,0-5.12.59c-1.68.32-6.59,1.14-6.76,1.64s.17,1.26.4,3.76,1.72,9.37-1.53,12.48c-2.25,2.15-7.09,2-8.93,2.82-.86.36-.91,1.6-.91,1.6s.85,3.33,9.5,3.1c2.57-.07,5.8-1.61,9-2.81s5.55-1.92,5.65-2.15a2.57,2.57,0,0,0,.06-.76s-.48-4.63.39-7.13S43.82,23.54,43.82,23.54Z" transform="translate(-4.5 -5.47)"/><path class="cls-3" d="M31.17,50.8l0,0,.05,0-.05,0Z" transform="translate(-4.5 -5.47)"/><path class="cls-3" d="M32.21,50.6l-.07,0Z" transform="translate(-4.5 -5.47)"/><path class="cls-3" d="M31.31,50.94A5.54,5.54,0,0,0,32,50.7a5.54,5.54,0,0,1-.66.24Z" transform="translate(-4.5 -5.47)"/><path class="cls-5" d="M33.48,48.4c-6,2.54-13.06,2.36-16.29-.95a6,6,0,0,0,.23,1.87c.34.46,1.82,1.88,5.73,2.31l.09-.18a.16.16,0,0,1,.14-.08l.36.06a.15.15,0,0,1,.12.07l.16.21.56,0c.17,0,.47,0,.63,0l.07-.15a.16.16,0,0,1,.14-.09h.42a.16.16,0,0,1,.14.08l.08.13.9,0,0-.15a.15.15,0,0,1,.13-.1l.42,0a.14.14,0,0,1,.12,0l.13.18,1-.13.06-.15,0,0,.05,0h0l.5-.09a.21.21,0,0,1,.17,0l.1.13c.31-.06.59-.13.85-.2V51a.17.17,0,0,1,.11-.12l.33-.1h.06a.15.15,0,0,1,.11,0l0,0,.05,0,0,0A5.54,5.54,0,0,0,32,50.7l.17-.07.07,0,.06,0a3.82,3.82,0,0,1,.07-.6c0-.06,2.43-1,2.58-1s.93.52,1.11.5.44-.1.94-.24c0,0,0,0,0,0l0-.29a.15.15,0,0,1,.11-.12h0a.15.15,0,0,1,.17.08l.1.24h0l.82-.23v0l0-.29a.15.15,0,0,1,.1-.12h0a.15.15,0,0,1,.17.08l.09.23.83-.24,0-.28a.15.15,0,0,1,.11-.12h0a.15.15,0,0,1,.17.09l.08.19c1.22-.39,1.59-1,1.62-1.61s0-1.53,0-1.68C40.44,45.56,36,47.3,33.48,48.4Z" transform="translate(-4.5 -5.47)"/><path class="cls-6" d="M33.48,48.4c2.56-1.1,7-2.84,8.09-3.34,0,0,.63-.36.61-.86,0-.68,0-.72-.12-.89a1.48,1.48,0,0,0-.39-.19,2.57,2.57,0,0,1-.06.76c-.1.23-2.58,1-5.65,2.15s-6.42,2.74-9,2.81c-8.65.23-9.5-3.1-9.5-3.1s-.49.1-.49.35a3.23,3.23,0,0,0-.05.74,1,1,0,0,0,.26.62C20.42,50.76,27.52,50.94,33.48,48.4Z" transform="translate(-4.5 -5.47)"/><path class="cls-3" d="M35.6,48.92c-.1-.15-.36-.12-.68,0,.15,0,.93.52,1.11.5C36,49.44,36,49.44,35.6,48.92Z" transform="translate(-4.5 -5.47)"/><path class="cls-6" d="M33.48,48.4c2.56-1.1,7-2.84,8.09-3.34,0,0,.63-.36.61-.86,0-.68,0-.72-.12-.89a1.48,1.48,0,0,0-.39-.19,2.57,2.57,0,0,1-.06.76c-.1.23-2.58,1-5.65,2.15s-6.42,2.74-9,2.81c-8.65.23-9.5-3.1-9.5-3.1s-.49.1-.49.35a3.23,3.23,0,0,0-.05.74,1,1,0,0,0,.26.62C20.42,50.76,27.52,50.94,33.48,48.4Z" transform="translate(-4.5 -5.47)"/><path class="cls-7" d="M26.88,49.33c3-.17,6.26-1.74,9.73-3.13C39.3,45.12,41.79,44.4,42,44c.12-.27.17-.6.09-.67a1.48,1.48,0,0,0-.39-.19,2.57,2.57,0,0,1-.06.76c-.1.23-2.58,1-5.65,2.15s-6.42,2.74-9,2.81c-8.65.23-9.5-3.1-9.5-3.1a1.06,1.06,0,0,0-.41.19S18.39,49.82,26.88,49.33Z" transform="translate(-4.5 -5.47)"/><path class="cls-7" d="M29.81,36c.15,1.53.09,5.16-1.73,6-1.47.68-.61-.53-.44-.72a6,6,0,0,0,1.74-4C29.53,36,29.74,35.55,29.81,36Z" transform="translate(-4.5 -5.47)"/><path class="cls-3" d="M43.34,23.08a.44.44,0,0,1-.08.11c.27.11.29.22.26.25a2.27,2.27,0,0,1-1.73.53,30.92,30.92,0,0,0-5.16.65,39.29,39.29,0,0,1-5.48.93c.19.1.39.19.24.23-1,.26.71,7.62,1,9,1.1,4.95-.66,8.93-2.43,10.45S23,46.87,21.18,46.53c-.95-.17-3.4-1.37-3.07-2.23a2.16,2.16,0,0,0-.64,1.44s.85,3.33,9.5,3.1c2.57-.07,5.8-1.61,9-2.81s5.55-1.92,5.65-2.15a2.57,2.57,0,0,0,.06-.76s-.48-4.63.39-7.13,1.76-12.45,1.76-12.45S43.92,23.29,43.34,23.08Z" transform="translate(-4.5 -5.47)"/><path class="cls-8" d="M29.31,25.71c1.68.43,6-.49,7.49-.85a30,30,0,0,1,5.12-.65c1.58,0,1.9-.67,1.9-.67s.32-.81-3.5-.69a36,36,0,0,0-5.12.59c-1.68.32-6.59,1.14-6.76,1.64C28.38,25.26,28.63,25.54,29.31,25.71Z" transform="translate(-4.5 -5.47)"/><path class="cls-9" d="M30.32,25.58a4.85,4.85,0,0,1-1.12-.11c-.38-.09-.51-.15-.58-.23s.05-.2.16-.26a45.48,45.48,0,0,1,5.74-1.32l.71-.13a38.8,38.8,0,0,1,5.1-.55H41c2.41,0,2.55.41,2.49.47a2.27,2.27,0,0,1-1.73.53,30.92,30.92,0,0,0-5.16.65,34,34,0,0,1-6.31,1Z" transform="translate(-4.5 -5.47)"/><path class="cls-3" d="M13.63,21.67a.64.64,0,0,1,.28.44.69.69,0,0,1-.14.51l-1.44,2a.67.67,0,0,1-.44.29.65.65,0,0,1-.51-.14L4.79,19.93a.67.67,0,0,1-.28-.44.68.68,0,0,1,.14-.5l1.44-2a.7.7,0,0,1,.44-.29.68.68,0,0,1,.51.13l1.79,1.31-.5.68L6.6,17.58,5.35,19.29,11.82,24l1.25-1.71-1.89-1.38.5-.69Z" transform="translate(-4.5 -5.47)"/><path class="cls-3" d="M15.54,20.77l-.57.55L8.29,14.56,8.86,14Z" transform="translate(-4.5 -5.47)"/><path class="cls-3" d="M19,18.05l-.64.47-.1-.13-.7.67a8.91,8.91,0,0,1-.72.62.58.58,0,0,1-.92-.14L14.6,17.8a.6.6,0,0,1,.15-.95l1.54-1.13-1-1.43-1.41,1,.6.82-.63.46-.59-.8a.61.61,0,0,1,.14-1l1.57-1.15a.61.61,0,0,1,1,.15Zm-1.06-.13-1.24-1.69L15.21,17.3,16.46,19Z" transform="translate(-4.5 -5.47)"/><path class="cls-3" d="M22.36,15.63a.61.61,0,0,1-.33.91l-1.69.78a.61.61,0,0,1-.91-.33l-.56-1.22.72-.34.56,1.21L21.63,16l-.49-1.07L18.5,14.2a.76.76,0,0,1-.55-.45l-.41-.89a.61.61,0,0,1,.34-.91l1.66-.77a.61.61,0,0,1,.91.34l.49,1.07-.71.33-.49-1.06-1.48.68.43.94,2.66.68a.76.76,0,0,1,.54.46Z" transform="translate(-4.5 -5.47)"/><path class="cls-3" d="M26.37,14.56a.61.61,0,0,1-.5.83l-1.8.44a.61.61,0,0,1-.83-.5L22.92,14l.77-.19.32,1.3,1.59-.39-.28-1.15-2.47-1.18a.79.79,0,0,1-.45-.54l-.23-.95a.61.61,0,0,1,.5-.83l1.78-.44a.61.61,0,0,1,.83.5l.28,1.15-.76.19-.28-1.14-1.59.39.25,1,2.48,1.17a.81.81,0,0,1,.45.55Z" transform="translate(-4.5 -5.47)"/><path class="cls-3" d="M31.26,14.27a.67.67,0,0,1-.18.5.66.66,0,0,1-.47.2l-3.14.1-.3-9.5,3.11-.1a.64.64,0,0,1,.49.17.63.63,0,0,1,.2.48l.09,2.82a.78.78,0,0,1-.32.65l-.65.42.73.44a.64.64,0,0,1,.33.59Zm-1-5.19-.09-2.86L28,6.29l.11,3.43,1.24,0Zm.19,5.15-.11-3.29-.87-.53-1.26,0,.12,3.84Z" transform="translate(-4.5 -5.47)"/><path class="cls-3" d="M35.65,15a.61.61,0,0,1-.8.55l-2-.38a.6.6,0,0,1-.55-.79l.83-4.47a.61.61,0,0,1,.8-.55l2,.38a.6.6,0,0,1,.55.8Zm-.79-.17.82-4.42-1.75-.32-.82,4.41Z" transform="translate(-4.5 -5.47)"/><path class="cls-3" d="M39.76,16.56a.61.61,0,0,1-.9.37L37,16.17a.61.61,0,0,1-.37-.9l1.71-4.2a.61.61,0,0,1,.89-.38l1.88.77a.61.61,0,0,1,.38.9ZM39,16.23l1.7-4.16-1.65-.67-1.7,4.16Z" transform="translate(-4.5 -5.47)"/><path class="cls-3" d="M42.13,18.81l-1-.6a.61.61,0,0,1-.21-.95l2.39-3.83-.61-.37.38-.61.6.38,1-1.56.67.42-1,1.56.87.55-.37.6L44,13.85l-2.37,3.81.87.55Z" transform="translate(-4.5 -5.47)"/><path class="cls-3" d="M45.54,20.79a.61.61,0,0,1-1,.06l-1.39-1.22a.61.61,0,0,1-.06-1l.89-1,.59.53-.88,1L45,20.26l.78-.89-.44-2.7a.72.72,0,0,1,.19-.67l.65-.74a.61.61,0,0,1,1-.06l1.37,1.21a.61.61,0,0,1,.06,1l-.78.88-.59-.52.77-.87-1.22-1.08-.69.77.46,2.71a.76.76,0,0,1-.2.68Z" transform="translate(-4.5 -5.47)"/><path class="cls-4" d="M48.5,21.69l-2.18,1.06-.86.41-.2-.25.86-.4,1.44-2,.22.25-1.19,1.51,1.7-.88Z" transform="translate(-4.5 -5.47)"/><path class="cls-4" d="M47.8,24.32a.24.24,0,0,1-.38-.06L47,23.59a.24.24,0,0,1,.06-.38l1.5-1.05a.24.24,0,0,1,.38.06l.47.67a.24.24,0,0,1-.07.38Zm-.18-.27,1.48-1-.41-.58-1.48,1Z" transform="translate(-4.5 -5.47)"/><path class="cls-4" d="M48.46,26l-.16-.28.05,0-.24-.31c-.09-.13-.17-.23-.22-.32a.23.23,0,0,1,.09-.36l1.84-1.08.16.27-1.8,1.06.38.61,1.78-1,.17.27Z" transform="translate(-4.5 -5.47)"/><path class="cls-4" d="M50.6,26.69l-.14-.29.44-.21-.28-.53-1.85.91-.15-.3,2.14-1,.14.29-.06,0,.19.27a1.9,1.9,0,0,1,.17.28.24.24,0,0,1-.12.36Z" transform="translate(-4.5 -5.47)"/><path class="cls-4" d="M52.53,29.68,50.12,30,50,29.69l1.6-.9L49.81,29l-.09-.27,2.1-1.21.1.29-1.63.89,1.84-.25.09.27-1.63.91,1.85-.26Z" transform="translate(-4.5 -5.47)"/><path class="cls-4" d="M50.61,31.91l-.07-.31h.06c-.05-.12-.09-.25-.14-.37s-.09-.27-.11-.36a.24.24,0,0,1,.2-.32l.84-.2a.24.24,0,0,1,.33.21l.17.74.7-.16-.16-.68-.39.1L52,30.24l.4-.09a.24.24,0,0,1,.33.2l.17.76a.24.24,0,0,1-.21.33Zm.22-.37.81-.19-.16-.7-.83.19Z" transform="translate(-4.5 -5.47)"/><path class="cls-4" d="M53.22,33.25,50.81,33l-1-.1,0-.31.95.1L53,31.79l0,.33-1.79.68,1.91.13Z" transform="translate(-4.5 -5.47)"/><path class="cls-4" d="M51,35.61l0-.47c0-.18.08-.27.26-.28l1.82-.08,0-.28.29,0v.29l.74,0v.32l-.73,0v.41l-.28,0,0-.42-1.8.08,0,.41Z" transform="translate(-4.5 -5.47)"/><path class="cls-4" d="M51.25,37.24A.25.25,0,0,1,51,37l0-.82a.25.25,0,0,1,.29-.27l1.82.05a.25.25,0,0,1,.27.28l0,.82a.24.24,0,0,1-.29.26Zm0-.32,1.8,0,0-.72-1.8,0Z" transform="translate(-4.5 -5.47)"/><path class="cls-4" d="M51,39.77a.24.24,0,0,1-.23-.31l.11-.74a.24.24,0,0,1,.31-.23l.54.07,0,.32-.53-.08-.1.65.47.07.82-.74a.28.28,0,0,1,.26-.08l.39.06a.25.25,0,0,1,.24.31l-.11.73a.24.24,0,0,1-.31.23L52.29,40l0-.31.47.07.09-.65L52.48,39l-.81.74a.3.3,0,0,1-.27.08Z" transform="translate(-4.5 -5.47)"/><path class="cls-4" d="M50.31,41.4l.07-.31h.06c0-.13,0-.26,0-.39s0-.28.06-.38a.24.24,0,0,1,.32-.2l2.07.48-.07.31-2-.47-.15.71,2,.46-.07.31Z" transform="translate(-4.5 -5.47)"/><path class="cls-4" d="M50.07,43.08a.24.24,0,0,1-.18-.34l.24-.74a.23.23,0,0,1,.34-.17l1.74.55a.24.24,0,0,1,.18.35l-.23.73a.25.25,0,0,1-.35.18l-.45-.15.1-.3.44.14.2-.64-1.72-.55-.2.64.5.16-.09.31Z" transform="translate(-4.5 -5.47)"/><path class="cls-4" d="M49.45,44.64a.24.24,0,0,1-.15-.36l.29-.71a.24.24,0,0,1,.36-.15l1.69.69a.24.24,0,0,1,.15.36l-.29.71a.24.24,0,0,1-.36.15l-.44-.18.12-.29.43.17.26-.62-1.67-.68-.26.62.49.2-.12.3Z" transform="translate(-4.5 -5.47)"/><path class="cls-4" d="M48.43,46.09l.14-.29.06,0c0-.12.09-.25.13-.37l.15-.36a.24.24,0,0,1,.36-.11l1.89,1-.14.28-1.86-.94-.31.65,1.84.94-.14.28Z" transform="translate(-4.5 -5.47)"/><path class="cls-4" d="M47.84,47.61a.24.24,0,0,1-.09-.38l.38-.63a.25.25,0,0,1,.38-.1l.46.28-.16.28-.46-.28-.34.56.4.24,1-.36a.34.34,0,0,1,.28,0l.34.21a.24.24,0,0,1,.09.37l-.38.63a.25.25,0,0,1-.38.1L49,48.31l.17-.27.4.24.34-.56-.36-.21-1,.37a.32.32,0,0,1-.28,0Z" transform="translate(-4.5 -5.47)"/><path class="cls-4" d="M46.88,49a.24.24,0,0,1-.06-.38l.43-.6a.25.25,0,0,1,.39-.07l.43.32-.18.26-.44-.32-.38.54.38.27,1.06-.28a.31.31,0,0,1,.28,0l.32.23a.25.25,0,0,1,.06.39l-.43.59a.24.24,0,0,1-.38.07L48,49.75l.18-.26.38.28.38-.53L48.59,49l-1.07.29a.32.32,0,0,1-.28-.05Z" transform="translate(-4.5 -5.47)"/><path class="cls-10" d="M46,51l-.54-.52h0l0,0,.18-.21a.94.94,0,0,1,.12-.14A.58.58,0,0,1,46,50a.39.39,0,0,1,.36.12.43.43,0,0,1,.13.34.52.52,0,0,1-.13.28l-.16.13A1.74,1.74,0,0,0,46,51Zm-.62.79-.7-.67h0v0h0l.71.68Zm-.08.13-.73-.71,0,0,.75.72h0v0Zm.05-.09-.71-.68,0,0,.72.7h0s0,0,0,0h0Zm-.08.14-.74-.73h0v0h0l.75.72h0Zm.06-.09-.73-.7h0s0,0,0,0h0l.74.71Zm-.18.24-.76-.73h0v0h0l.75.72Zm-.73-.77h0l0,0,.76.74h0v0h0Zm.79.69-.75-.73h0v0h0l.75.73Zm0,0-.75-.72,0,0,.75.73h0s0,0,0,0h0Zm-.89-.57,0,0,.75.73h0v0h0l-.75-.73Zm1.2,0L45,50.93l0,0,.59.57h0a0,0,0,0,1,0,0h0Zm0,0L44.94,51h0l.6.58Zm.06-.09L45,50.9h0s0,0,0,0h0l.57.55Zm-.5.77-.76-.72h0v0h0l.74.71Zm.35-.49-.66-.64h0s0,0,0,0h0l.67.65Zm0,0-.68-.65,0,0,.7.68h0s0,0,0,0h0Zm.09-.18L44.89,51l0,0,.62.6h0a0,0,0,0,1,0,0h0Zm0,.09-.64-.62,0,0,.66.63h0v0h0Zm.15-.27-.54-.53,0,0,.56.54h0s0,0,0,0h0Zm-.13.22-.62-.6h0l.63.61Zm-.85,1L44,52v0h0l.59.57h0Zm0,0L44,52.07l0,0,.56.54h0Zm.09-.06L44,52v0l.6.58h.05Zm-.13.08L44,52.13h0v0a0,0,0,0,1,0,0h0l.52.5h0Zm-.25-1.13,0,0,.74.72h0v0h0l-.74-.72Zm.41,1-.64-.62h0s0,0,0,0h0l.62.6,0,0Zm-.21.14L44,52.18a.11.11,0,0,0,0,0h0l.46.44h.06ZM44,52.37l0,.05h0v0s0,0,0,0l0,0h0v0h0l0,0h0s0,0,0,0l.05,0h0v0l.06,0h0L44,52.36Zm0-.1a.13.13,0,0,0,0,.06h0l.34.33h.08L44,52.26Zm.12-.39,0,0,.63.62h0l-.66-.63Zm.14-.26,0,0,.72.7v0h0l-.73-.7Zm.7.73-.72-.7v0h0s0,0,0,0h0l.7.68Zm.08-.07-.74-.71h0l.72.7Zm-.83-.58,0,0,.7.67h0l-.71-.69Zm.68.72-.7-.68v0h0s0,0,0,0v0h0l.68.66Zm-.08.07-.67-.65h0v0h0l.65.64,0,0Zm-.65-.7,0,0,.67.65h0l-.68-.66Zm1.6-.56,0,0-.5-.49,0,0Zm-.07.09-.52-.51,0,0,.53.51h0v0Zm0,0-.51-.49,0,0,.52.5Zm0,0-.51-.5,0,0,.51.5Zm-.09.12-.53-.52h0s0,0,0,0h0l.55.52h0Zm-.38-.65,0,0-.17.14a3.48,3.48,0,0,1-.33.24,1.72,1.72,0,0,0-.29.24,2.33,2.33,0,0,0-.42.64l0,0a.43.43,0,0,0,.11.59.46.46,0,0,0,.32.17.4.4,0,0,0,.2-.07,3.9,3.9,0,0,0,.67-.63,1.3,1.3,0,0,0,.18-.3,1.64,1.64,0,0,1,.18-.34l.13-.17,0,0,0,0h0l0,0h0l0,0h0l0,0h0v0h0l0,0h0l0,0h0v0h0l0,0h0v0h0l0,0h0l0,0h0l0,0h0l0,0h0l0,0h0l0,0h0l0,0h0l0,0h0l0,0h0l0,0h0l0,0h0l0,0h0l0,0h0l0,0h0l0,0h0l0,0h0l0,0h0l0,0h0l0,0h0l0,0h0l0,0h0l0,0,0,0h0l0,0,0,0h0l0,0h0l0,0h-.2l-.06,0,0,0-.05,0,0,0h0l0,0h0l0,0,0,0,0,0,0-.05s0,0,0,0h0a.13.13,0,0,1,0-.06.06.06,0,0,1,0,0,.11.11,0,0,1,0,0h0a.06.06,0,0,1,0,0h0l0,0h0v0h0v0h0l0,0h0l0,0v0h0l0,0,0,0v0h0l0,0,0,0v0h0l0,0,0,0h0l0,0,0,0h0l0,0,0,0h0l0,0,0,0h0l0,0h0l0,0h0l0,0h0l0,0h0l0,0h0l0,0h0l0,0h0l0,0h0l0,0h0l0,0h0l0,0h0l0,0h0l0,0h0l0,0h0l0,0h0l0,0h0l0,0h0l0,0h0l0,0h0Z" transform="translate(-4.5 -5.47)"/><path class="cls-10" d="M45,54l-.54-.52h0l0,0,.18-.21a.94.94,0,0,1,.12-.14A.58.58,0,0,1,45,53a.39.39,0,0,1,.36.12.43.43,0,0,1,.13.34.52.52,0,0,1-.13.28l-.16.13A1.74,1.74,0,0,0,45,54Zm-.62.79-.7-.67h0v0h0l.71.68Zm-.08.13-.73-.71,0,0,.75.72h0v0Zm.05-.09-.71-.68,0,0,.72.7h0s0,0,0,0h0Zm-.08.14-.74-.73h0v0h0l.75.72h0Zm.06-.09-.73-.7h0s0,0,0,0h0l.74.71Zm-.18.24-.76-.73h0v0h0l.75.72Zm-.73-.77h0l0,0,.76.74h0v0h0Zm.79.69-.75-.73h0v0h0l.75.73Zm0,0-.75-.72,0,0,.75.73h0s0,0,0,0h0Zm-.89-.57,0,0,.75.73h0v0h0l-.75-.73Zm1.2,0L44,53.93l0,0,.59.57h0a0,0,0,0,1,0,0h0Zm0,0L43.94,54h0l.6.58Zm.06-.09L44,53.9h0s0,0,0,0h0l.57.55Zm-.5.77-.76-.72h0v0h0l.74.71Zm.35-.49-.66-.64h0s0,0,0,0h0l.67.65Zm0,0-.68-.65,0,0,.7.68h0s0,0,0,0h0Zm.09-.18L43.89,54l0,0,.62.6h0a0,0,0,0,1,0,0h0Zm0,.09-.64-.62,0,0,.66.63h0v0h0Zm.15-.27-.54-.53,0,0,.56.54h0s0,0,0,0h0Zm-.13.22-.62-.6h0l.63.61Zm-.85,1L43,55v0h0l.59.57h0Zm0,0L43,55.07l0,0,.56.54h0Zm.09-.06L43,55v0l.6.58h.05Zm-.13.08L43,55.13h0v0a0,0,0,0,1,0,0h0l.52.5h0Zm-.25-1.13,0,0,.74.72h0v0h0l-.74-.72Zm.41,1-.64-.62h0s0,0,0,0h0l.62.6,0,0Zm-.21.14L43,55.18a.11.11,0,0,0,0,0h0l.46.44h.06ZM43,55.37l0,.05h0v0s0,0,0,0l0,0h0v0h0l0,0h0s0,0,0,0l.05,0h0v0l.06,0h0L43,55.36Zm0-.1a.13.13,0,0,0,0,.06h0l.34.33h.08L43,55.26Zm.12-.39,0,0,.63.62h0l-.66-.63Zm.14-.26,0,0,.72.7v0h0l-.73-.7Zm.7.73-.72-.7v0h0s0,0,0,0h0l.7.68Zm.08-.07-.74-.71h0l.72.7Zm-.83-.58,0,0,.7.67h0l-.71-.69Zm.68.72-.7-.68v0h0s0,0,0,0v0h0l.68.66Zm-.08.07-.67-.65h0v0h0l.65.64,0,0Zm-.65-.7,0,0,.67.65h0l-.68-.66Zm1.6-.56,0,0-.5-.49,0,0Zm-.07.09-.52-.51,0,0,.53.51h0v0Zm0,0-.51-.49,0,0,.52.5Zm0,0-.51-.5,0,0,.51.5Zm-.09.12-.53-.52h0s0,0,0,0h0l.55.52h0Zm-.38-.65,0,0-.17.14a3.48,3.48,0,0,1-.33.24,1.72,1.72,0,0,0-.29.24,2.33,2.33,0,0,0-.42.64l0,0a.43.43,0,0,0,.11.59.46.46,0,0,0,.32.17.4.4,0,0,0,.2-.07,3.9,3.9,0,0,0,.67-.63,1.3,1.3,0,0,0,.18-.3,1.64,1.64,0,0,1,.18-.34l.13-.17,0,0,0,0h0l0,0h0l0,0h0l0,0h0v0h0l0,0h0l0,0h0v0h0l0,0h0v0h0l0,0h0l0,0h0l0,0h0l0,0h0l0,0h0l0,0h0l0,0h0l0,0h0l0,0h0l0,0h0l0,0h0l0,0h0l0,0h0l0,0h0l0,0h0l0,0h0l0,0h0l0,0h0l0,0h0l0,0h0l0,0h0l0,0,0,0h0l0,0,0,0h0l0,0h0l0,0h-.2l-.06,0,0,0-.05,0,0,0h0l0,0h0l0,0,0,0,0,0,0-.05s0,0,0,0h0a.13.13,0,0,1,0-.06.06.06,0,0,1,0,0,.11.11,0,0,1,0,0h0a.06.06,0,0,1,0,0h0l0,0h0v0h0v0h0l0,0h0l0,0v0h0l0,0,0,0v0h0l0,0,0,0v0h0l0,0,0,0h0l0,0,0,0h0l0,0,0,0h0l0,0,0,0h0l0,0h0l0,0h0l0,0h0l0,0h0l0,0h0l0,0h0l0,0h0l0,0h0l0,0h0l0,0h0l0,0h0l0,0h0l0,0h0l0,0h0l0,0h0l0,0h0l0,0h0l0,0h0l0,0h0Z" transform="translate(-4.5 -5.47)"/><path class="cls-10" d="M42,55.06l-.51-.54,0,0,0,0,0,0,.18-.19.14-.14a.56.56,0,0,1,.29-.14.43.43,0,0,1,.35.14.44.44,0,0,1,.12.35.49.49,0,0,1-.15.27l-.17.13Zm-.65.76-.66-.71h0v0h0l.67.72Zm-.1.12-.69-.75,0,0,.7.76h0v0h0Zm.06-.08-.67-.72,0,0,.68.74h0s0,0,0,0h0Zm-.08.13-.71-.76h0s0,0,0,0h0l.71.76h0Zm.06-.08-.69-.75h0s0,0,0,0h0l.69.74Zm-.2.22-.72-.77h0s0,0,0,0h0l.71.77Zm-.68-.8h0l0,0,.71.77h0s0,0,0,0h0Zm.75.73-.71-.77h0v0h0l.71.76Zm0,0-.71-.76,0,0,.71.77h0s0,0,0,0h0Zm-.85-.62,0,0,.71.77h0v0h0l-.71-.77Zm1.19.1L41,54.92l0,0,.55.6h0v0h0Zm0,0L41,55h0v0h0l.57.61Zm.06-.09L41,54.89h0s0,0,0,0h0l.54.58ZM41,56.2l-.71-.76h0v0h0l.69.75Zm.38-.47-.63-.67h0v0h0l.63.69Zm0,0-.64-.69,0,0,.66.71h0v0h0Zm.1-.18L40.91,55l0,0,.59.63h0s0,0,0,0h0Zm0,.09-.6-.65,0,0,.62.67h0s0,0,0,0h0Zm.17-.26-.52-.56,0,0,.53.57h0v0h0Zm-.14.22L40.87,55h0s0,0,0,0h0l.59.65Zm-.91.93L40,56h0v0h0l.56.6h0l0,0Zm0,0L40,56l0,0,.52.57h0Zm.09-.05L40,55.91l0,0h0l.57.62h0s0,0,0,0h0Zm-.14.07-.52-.56h0v0h0l.5.53h0Zm-.18-1.14,0,0,.7.76h0s0,0,0,0h0l-.7-.76Zm.36,1L40,55.87h0v0h0l.58.64,0,0Zm-.23.12-.49-.53s0,0,0,0h0l.44.47h0Zm-.47-.34,0,.05h0s0,0,0,0l0,0h0s0,0,0,0h0l0,0h0a0,0,0,0,1,0,0v0h0s0,0,0,0l.05,0h0l0,0h0L40,56.29Zm0-.1s0,0,0,.06h0l.33.35h.08l-.43-.46A0,0,0,0,1,39.91,56.2Zm.15-.38,0,0,.6.65h0l-.62-.67Zm.16-.26,0,0,.68.74h0s0,0,0,0h0l-.69-.74Zm.66.78-.69-.74h0s0,0,0,0h0l.66.72Zm.07-.07-.7-.76v0h0s0,0,0,0h0l.69.74Zm-.79-.62,0,0,.66.71h0l-.67-.72Zm.64.75-.66-.72v0h0v0h0l.64.7Zm-.08.06-.64-.69v0h0v0h0l.62.67,0,0Zm-.61-.73,0,0,.63.68h0l-.64-.7Zm1.62-.47,0,0-.48-.52,0,0Zm-.07.08-.5-.53,0,0,.5.54h0Zm0,0-.49-.52,0,0,.49.53Zm0,0-.49-.52,0,0,.49.53Zm-.1.12-.51-.55h0l.51.56v0Zm-.35-.67,0,0a1.09,1.09,0,0,1-.17.13,3.44,3.44,0,0,1-.34.22,1.75,1.75,0,0,0-.31.23,2.26,2.26,0,0,0-.45.61l0,.05a.46.46,0,0,0-.09.27.6.6,0,0,0,.16.32.48.48,0,0,0,.31.18.31.31,0,0,0,.21-.06,3.91,3.91,0,0,0,.7-.59,1.07,1.07,0,0,0,.19-.29,3,3,0,0,1,.21-.33l.14-.16,0,0,0,0h0l0,0h0l0,0h0l0,0h0l0,0v0h0l0,0h0l0,0h0l0,0h0l0,0h0l0,0h0l0,0h0l0,0h0l0,0h0l0,0h0l0,0h0l0,0h0l0,0h0l0,0h0l0,0h0l0,0h0l0,0h0l0,0h0l0,0h0l0,0h0l0,0h0l0,0h0l0,0h0l0,0h0l0,0h0l0,0h0l0,0h0l0,0,0,0h0l0,0,0,0h0l0,0,0,0h0l0,0h-.2l0,0,0,0-.05,0,0,0h0l0,0h0l0,0,0,0,0,0,0-.05s0,0,0,0h0s0,0,0-.06v0s0,0,0,0h0a.06.06,0,0,0,0,0h0l0,0h0l0,0h0l0,0h0l0,0h0l0,0,0,0v0h0l0,0,0,0v0h0l0,0,0,0h0l0,0,0,0v0h0l0,0,0,0h0l0,0,0,0h0l0,0,0,0h0l0,0h0l0,0h0l0,0h0l0,0h0l0,0h0l0,0h0l0,0h0l0,0h0l0,0h0l0,0h0l0,0h0l0,0h0l0,0h0l0,0h0l0,0h.05l0,0h0l0,0h0l0,0h0Z" transform="translate(-4.5 -5.47)"/><path class="cls-10" d="M41,58.11l-.48-.57,0,0,0,0,0,0,.2-.18a.79.79,0,0,1,.14-.13.6.6,0,0,1,.3-.12.4.4,0,0,1,.34.16.41.41,0,0,1,.1.36.44.44,0,0,1-.17.26l-.17.11Zm-.71.72-.61-.75h0l.63.77Zm-.1.11-.64-.79,0,0,.66.8h0v0h0Zm.07-.07-.62-.77,0,0,.63.79h0v0h0Zm-.1.12-.65-.81h0l.65.8h0Zm.07-.08-.64-.78h0s0,0,0,0h0l.64.78Zm-.21.21-.67-.81h0s0,0,0,0h0l.65.8Zm-.63-.84h0l0,0,.66.82h0s0,0,0,0h0Zm.7.78-.66-.82h0v0h0l.66.81Zm0,0-.66-.81,0,0,.67.81h0v0h0Zm-.82-.68,0,0,.67.82h0s0,0,0,0h0l-.66-.81Zm1.19.18L40,57.91l0,0,.52.63h0s0,0,0,0h0Zm0,0L40,57.93h0s0,0,0,0h0l.53.64Zm.06-.08-.49-.6h0v0h0l.5.62Zm-.59.71-.66-.81h0v0h0l.65.8Zm.41-.45L39.8,58h0s0,0,0,0h0l.59.73Zm0,0-.6-.73,0,0,.62.75h0s0,0,0,0h0Zm.11-.17L39.94,58l0,0,.54.66h0s0,0,0,0v0Zm-.05.08L39.85,58l0,0,.57.7h0s0,0,0,0h0s0,0,0,0h0Zm.18-.25-.48-.58,0,0,.49.6h0v0h0a0,0,0,0,1,0,0h0Zm-.15.21L39.89,58h0a0,0,0,0,1,0,0h0l.56.68Zm-1,.88-.53-.65h0v0h0l.52.63h0Zm0,0-.51-.64,0,0,.49.6h0Zm.09-.05L39,58.83v0h0l.53.65h0Zm-.14.06-.49-.6h0v0h0l.47.57h0Zm-.11-1.15,0,0,.65.8h0s0,0,0,0h0l-.65-.8Zm.29,1.06L39,58.79h0v0h0l.55.68,0,0Zm-.23.11L38.87,59a.43.43,0,0,0,0,0h0l.4.49h.06Zm-.45-.38,0,.06h0v0l0,0h0v0s0,0,0,0h0l0,0h0v0a.1.1,0,0,0,.05,0h0v0l0,0h0l-.29-.37Zm0-.1a.13.13,0,0,0,0,.06h0l.3.37h.08l-.4-.48Zm.17-.36,0,0,.56.69h0l-.58-.7Zm.18-.25,0,0,.63.77h0l-.63-.78Zm.6.81-.63-.78v0h0v0h0l.62.76Zm.08-.06-.65-.8v0h0l.64.78Zm-.75-.67,0,0,.61.75h0l-.62-.76Zm.59.79-.61-.76v0h0v0h0l.6.74Zm-.08.05-.59-.72h0l.57.7,0,0Zm-.57-.76,0,0,.59.72h0l-.6-.74Zm1.65-.37,0,0-.44-.54,0,0Zm-.07.08-.46-.57,0,0,.47.57h0s0,0,0,0h0Zm0,0-.45-.55,0,0,.46.56Zm0,0-.45-.55,0,0,.46.56Zm-.11.1-.47-.57h0v0h0l.47.59,0,0Zm-.3-.68,0,0-.18.11a3.21,3.21,0,0,1-.35.2,1.73,1.73,0,0,0-.33.21,2.2,2.2,0,0,0-.48.58l0,0a.52.52,0,0,0-.1.27.52.52,0,0,0,.14.33.44.44,0,0,0,.29.2.38.38,0,0,0,.22,0A4,4,0,0,0,40.2,59a1.46,1.46,0,0,0,.22-.28,2.42,2.42,0,0,1,.22-.31,1.06,1.06,0,0,1,.15-.15l0,0,0,0h0l0,0h0l0,0h0l0,0h0v0l0,0h0l0,0h0l0,0h0l0,0h0l0,0h0l0,0h0l0,0h0l0,0h0l0,0h0l0,0h0l0,0h0l0,0h0l0,0h0l0,0h0l0,0h0l0,0h0l0,0h0l0,0h0l0,0h0l0,0h0l0,0h0l0,0h0l0,0h0l0,0h0l0,0h0l0,0h0l0,0h0l0,0,0,0h0l0,0,0,0h0l0,0h0l0,0h-.2l0,0,0,0a.1.1,0,0,1-.05,0l0,0h0l0,0v0h0l0,0,0,0v0l0-.06v0h0a.13.13,0,0,1,0-.06v0a.43.43,0,0,1,0,0h0a0,0,0,0,1,0,0h0l0,0h0l0,0h0v0h0l0,0h0l0,0,0,0h0l0,0,0,0v0h0l0,0,0,0v0h0l0,0,0,0v0h0l0,0,0,0h0l0,0,0,0h0l0,0,0,0h0l0,0h0l0,0h0l0,0h0l0,0h0l0,0h0l0,0h0l0,0h0l0,0h0l0,0h0l0,0h0l0,0h0l0,0h0l0,0h0l0,0h0l0,0h0l0,0h0l0,0h0Z" transform="translate(-4.5 -5.47)"/></g></g></svg>